<?xml version="1.0" standalone="no"?>
<!DOCTYPE svg PUBLIC "-//W3C//DTD SVG 20010904//EN"
 "http://www.w3.org/TR/2001/REC-SVG-20010904/DTD/svg10.dtd">
<svg version="1.0" xmlns="http://www.w3.org/2000/svg"
 width="390.000000pt" height="129.000000pt" viewBox="0 0 390.000000 129.000000"
 preserveAspectRatio="xMidYMid meet">

<g transform="translate(0.000000,129.000000) scale(0.100000,-0.100000)"
fill="#000000" stroke="none">
<path d="M2254 1085 c-9 -14 -13 -32 -9 -45 15 -47 86 -50 107 -5 27 59 -62
105 -98 50z"/>
<path d="M1105 891 c-178 -30 -288 -217 -230 -392 26 -76 112 -161 185 -183
119 -35 216 -12 300 72 71 72 95 133 88 231 -13 176 -170 301 -343 272z m112
-86 c59 -18 123 -80 143 -139 30 -93 -8 -198 -92 -253 -36 -24 -52 -28 -113
-28 -61 0 -77 4 -113 28 -121 80 -137 240 -33 341 34 33 99 64 142 65 8 1 38
-6 66 -14z"/>
<path d="M2161 623 c-60 -153 -113 -286 -117 -296 -6 -16 -2 -18 37 -15 l43 3
48 115 c26 63 64 163 85 222 21 60 40 108 43 108 3 0 22 -48 43 -108 21 -59
59 -159 85 -222 l47 -115 44 -3 c33 -3 42 0 38 10 -3 7 -55 140 -117 296 -150
378 -131 378 -279 5z"/>
<path d="M379 876 c-93 -33 -157 -100 -184 -190 -31 -105 -9 -207 62 -286 59
-66 120 -94 203 -94 84 0 133 17 188 67 36 34 92 120 92 142 0 3 -17 5 -37 4
-34 0 -41 -5 -68 -46 -88 -133 -281 -118 -356 28 -23 46 -25 132 -4 182 18 44
69 96 112 113 48 20 127 17 173 -6 38 -20 90 -76 90 -98 0 -7 17 -12 41 -12
40 0 41 1 34 28 -9 39 -49 96 -88 126 -69 53 -178 71 -258 42z"/>
<path d="M1590 600 l0 -290 180 0 180 0 0 40 0 40 -140 0 -140 0 0 250 0 250
-40 0 -40 0 0 -290z"/>
<path d="M2660 601 l0 -291 155 0 c172 0 208 8 242 56 55 77 49 172 -14 232
l-36 33 24 25 c32 34 34 119 3 160 -47 64 -62 69 -225 72 l-149 3 0 -290z
m299 183 c24 -30 26 -52 10 -88 -17 -36 -55 -47 -145 -44 l-79 3 -3 78 -3 77
100 0 c96 0 100 -1 120 -26z m28 -236 c41 -41 39 -100 -5 -139 -31 -28 -36
-29 -137 -29 l-105 0 0 93 c0 52 3 97 8 101 4 4 53 6 109 4 96 -3 104 -5 130
-30z"/>
<path d="M3319 867 c-83 -44 -116 -125 -83 -205 24 -58 77 -87 187 -101 43 -6
91 -18 107 -26 25 -13 30 -22 30 -54 0 -107 -192 -140 -248 -41 -14 25 -23 30
-56 30 -38 0 -38 -1 -32 -31 23 -115 195 -173 321 -108 69 35 95 76 95 150 0
53 -3 62 -33 92 -36 36 -75 50 -181 67 -38 6 -77 15 -87 21 -47 25 -47 95 -1
128 62 43 151 34 197 -20 22 -27 30 -30 60 -25 31 6 33 9 25 31 -30 79 -90
115 -192 115 -49 0 -76 -6 -109 -23z"/>
<path d="M2253 264 c-15 -24 -15 -29 -2 -53 11 -20 22 -26 49 -26 27 0 38 6
49 26 13 24 13 29 -2 53 -12 18 -26 26 -47 26 -21 0 -35 -8 -47 -26z"/>
</g>
</svg>



